<svg width="75" height="14" viewBox="0 0 75 14" fill="none" xmlns="http://www.w3.org/2000/svg">
<path d="M1.40896 12.9434V12.6884L2.59896 12.3484V3.01536L0.813964 4.27336L0.473964 3.84836L3.56796 1.04336H5.40396V12.3484L6.59396 12.6884V12.9434H1.40896ZM7.78463 12.1784C7.78463 11.5097 7.91496 10.9034 8.17563 10.3594C8.44763 9.80403 8.77629 9.32236 9.16163 8.91436C9.54696 8.50636 10.0513 8.02469 10.6746 7.46936C11.2526 6.95936 11.706 6.53436 12.0346 6.19436C12.3633 5.84303 12.641 5.45203 12.8676 5.02136C13.0943 4.57936 13.2076 4.10336 13.2076 3.59336C13.2076 2.84536 13.0263 2.26169 12.6636 1.84236C12.301 1.42303 11.8306 1.21336 11.2526 1.21336C10.924 1.21336 10.5896 1.25869 10.2496 1.34936L9.89263 1.46836V4.18836L9.67163 4.23936C9.49029 4.26203 9.33729 4.27336 9.21263 4.27336C8.82729 4.27336 8.51563 4.16003 8.27763 3.93336C8.05096 3.69536 7.93763 3.38369 7.93763 2.99836C7.93763 2.63569 8.07363 2.28436 8.34563 1.94436C8.62896 1.60436 9.04263 1.32669 9.58663 1.11136C10.142 0.896025 10.8106 0.788359 11.5926 0.788359C13.1226 0.788359 14.256 1.09436 14.9926 1.70636C15.7293 2.31836 16.0976 3.17403 16.0976 4.27336C16.0976 4.96469 15.9163 5.55969 15.5536 6.05836C15.2023 6.55703 14.766 6.97069 14.2446 7.29936C13.7346 7.62803 13.049 8.00203 12.1876 8.42136C11.4623 8.77269 10.873 9.08436 10.4196 9.35636C9.97763 9.61703 9.56396 9.93436 9.17863 10.3084C8.80463 10.6824 8.53829 11.1074 8.37963 11.5834H14.6696C14.749 10.9714 14.9416 10.4614 15.2476 10.0534C15.3723 9.86069 15.5196 9.69069 15.6896 9.54336H16.1996V12.9434H7.78463V12.1784ZM22.0679 13.1984C20.6399 13.1984 19.5576 12.915 18.8209 12.3484C18.0956 11.7817 17.7329 11.045 17.7329 10.1384C17.7329 9.51503 18.0049 8.91436 18.5489 8.33636C19.0929 7.74703 19.7559 7.32769 20.5379 7.07836C19.7899 6.65903 19.2176 6.20003 18.8209 5.70136C18.4356 5.19136 18.2429 4.57369 18.2429 3.84836C18.2429 2.94169 18.6056 2.20503 19.3309 1.63836C20.0676 1.07169 21.1499 0.788359 22.5779 0.788359C23.2919 0.788359 23.9153 0.918692 24.4479 1.17936C24.9919 1.44003 25.4113 1.78003 25.7059 2.19936C26.0006 2.61869 26.1479 3.05503 26.1479 3.50836C26.1479 4.04103 25.9156 4.55669 25.4509 5.05536C24.9976 5.55403 24.4649 5.88836 23.8529 6.05836C24.8843 6.51169 25.6663 7.05003 26.1989 7.67336C26.7316 8.29669 26.9979 9.06169 26.9979 9.96836C26.9979 10.5577 26.8166 11.096 26.4539 11.5834C26.0913 12.0707 25.5416 12.4617 24.8049 12.7564C24.0683 13.051 23.1559 13.1984 22.0679 13.1984ZM23.3429 5.71836C23.7736 5.52569 24.1193 5.24803 24.3799 4.88536C24.6519 4.52269 24.7879 4.06369 24.7879 3.50836C24.7879 3.10036 24.6859 2.72069 24.4819 2.36936C24.2893 2.01803 24.0343 1.74036 23.7169 1.53636C23.4109 1.32103 23.0879 1.21336 22.7479 1.21336C22.2606 1.21336 21.8526 1.40603 21.5239 1.79136C21.2066 2.16536 21.0479 2.68103 21.0479 3.33836C21.0479 4.24503 21.8129 5.03836 23.3429 5.71836ZM21.8979 12.7734C22.6233 12.7734 23.1843 12.575 23.5809 12.1784C23.9889 11.7704 24.1929 11.2037 24.1929 10.4784C24.1929 9.93436 23.9209 9.38469 23.3769 8.82936C22.8329 8.27403 22.1133 7.80369 21.2179 7.41836C20.5833 7.64503 20.0846 7.98503 19.7219 8.43836C19.3593 8.88036 19.1779 9.44703 19.1779 10.1384C19.1779 10.6144 19.2969 11.0564 19.5349 11.4644C19.7843 11.861 20.1129 12.1784 20.5209 12.4164C20.9403 12.6544 21.3993 12.7734 21.8979 12.7734ZM33.1266 12.6884L34.1466 12.4334V1.55336L33.1266 1.29836V1.04336H37.4616C39.4902 1.04336 41.0429 1.56469 42.1196 2.60736C43.2076 3.65003 43.7516 5.11203 43.7516 6.99336C43.7516 8.87469 43.2076 10.3367 42.1196 11.3794C41.0429 12.422 39.4902 12.9434 37.4616 12.9434H33.1266V12.6884ZM37.4616 12.5184C38.5156 12.5184 39.3316 12.0934 39.9096 11.2434C40.4876 10.382 40.7766 8.96536 40.7766 6.99336C40.7766 5.02136 40.4876 3.61036 39.9096 2.76036C39.3316 1.89903 38.5156 1.46836 37.4616 1.46836H36.9516V12.5184H37.4616ZM43.5743 12.6884L44.9343 12.1784L49.6093 0.873359H50.1193L54.9643 12.4334L55.8143 12.6884V12.9434H53.7743C53.1849 12.9434 52.7033 12.813 52.3293 12.5524C51.9553 12.2804 51.6776 11.929 51.4963 11.4984L50.6293 9.45836H46.5663L45.4443 12.1784L46.7193 12.6884V12.9434H43.5743V12.6884ZM46.7363 9.03336H50.4593L48.5893 4.56236L46.7363 9.03336ZM57.5887 12.6884L58.6087 12.4334V8.52336L55.1237 1.55336L54.2737 1.29836V1.04336H56.3987C56.988 1.04336 57.4583 1.16803 57.8097 1.41736C58.1723 1.66669 58.467 2.02369 58.6937 2.48836L61.2097 7.50336L63.7937 1.80836L62.5187 1.29836V1.04336H65.7487V1.29836L64.3887 1.80836L61.4137 8.35336V12.4334L62.4337 12.6884V12.9434H57.5887V12.6884ZM70.0797 13.1984C69.275 13.1984 68.5213 13.017 67.8187 12.6544C67.5013 12.4957 67.235 12.3087 67.0197 12.0934C66.861 12.354 66.6627 12.5864 66.4247 12.7904C66.2207 12.9377 66.1073 13.017 66.0847 13.0284H65.6597V9.79836H66.3397C66.5097 10.3537 66.7477 10.8524 67.0537 11.2944C67.745 12.2804 68.6403 12.7734 69.7397 12.7734C70.3857 12.7734 70.9013 12.5807 71.2867 12.1954C71.672 11.81 71.8647 11.2944 71.8647 10.6484C71.8647 10.2744 71.7513 9.94003 71.5247 9.64536C71.3093 9.35069 71.0373 9.09003 70.7087 8.86336C70.38 8.63669 69.921 8.35336 69.3317 8.01336C68.5837 7.59403 67.9773 7.21436 67.5127 6.87436C67.048 6.53436 66.6513 6.10936 66.3227 5.59936C65.994 5.07803 65.8297 4.46603 65.8297 3.76336C65.8297 3.20803 65.9827 2.70936 66.2887 2.26736C66.606 1.81403 67.0763 1.45703 67.6997 1.19636C68.323 0.924359 69.088 0.788359 69.9947 0.788359C70.652 0.788359 71.3093 0.975359 71.9667 1.34936C72.216 1.48536 72.4653 1.66669 72.7147 1.89336C72.9073 1.59869 73.1057 1.36636 73.3097 1.19636C73.5137 1.04903 73.627 0.969692 73.6497 0.958359H74.0747V4.18836H73.3947C73.2473 3.64436 73.0263 3.15136 72.7317 2.70936C72.4597 2.27869 72.1197 1.92169 71.7117 1.63836C71.315 1.35503 70.856 1.21336 70.3347 1.21336C69.8927 1.21336 69.513 1.38903 69.1957 1.74036C68.8783 2.09169 68.7197 2.53936 68.7197 3.08336C68.7197 3.50269 68.8387 3.88236 69.0767 4.22236C69.326 4.55103 69.6263 4.84003 69.9777 5.08936C70.3403 5.33869 70.8277 5.63903 71.4397 5.99036C72.1537 6.39836 72.7317 6.76103 73.1737 7.07836C73.6157 7.39569 73.9897 7.79236 74.2957 8.26836C74.6017 8.73303 74.7547 9.27136 74.7547 9.88336C74.7547 10.4954 74.579 11.0564 74.2277 11.5664C73.8763 12.065 73.3493 12.4617 72.6467 12.7564C71.944 13.051 71.0883 13.1984 70.0797 13.1984Z" fill="white"/>
</svg>
