<svg width="52" height="14" viewBox="0 0 52 14" fill="none" xmlns="http://www.w3.org/2000/svg">
<path d="M4.0973 12.9429V12.6879L5.2873 12.3479V9.79787H0.442295L0.102295 9.28787L6.4773 0.87287H8.0923V9.03287H9.8773V9.79787H8.0923V12.3479L9.2823 12.6879V12.9429H4.0973ZM1.03729 9.03287H5.2873V3.42287L1.03729 9.03287ZM15.6586 13.1979C14.7406 13.1979 13.9076 12.9542 13.1596 12.4669C12.4116 11.9795 11.8166 11.2712 11.3746 10.3419C10.944 9.4012 10.7286 8.28487 10.7286 6.99287C10.7286 5.70087 10.944 4.5902 11.3746 3.66087C11.8166 2.7202 12.4116 2.0062 13.1596 1.51887C13.9076 1.03154 14.7406 0.787871 15.6586 0.787871C16.5766 0.787871 17.4096 1.03154 18.1576 1.51887C18.9056 2.0062 19.495 2.7202 19.9256 3.66087C20.3676 4.5902 20.5886 5.70087 20.5886 6.99287C20.5886 8.28487 20.3676 9.4012 19.9256 10.3419C19.495 11.2712 18.9056 11.9795 18.1576 12.4669C17.4096 12.9542 16.5766 13.1979 15.6586 13.1979ZM15.6586 12.8579C16.962 12.8579 17.6136 10.9029 17.6136 6.99287C17.6136 3.08287 16.962 1.12787 15.6586 1.12787C14.3553 1.12787 13.7036 3.08287 13.7036 6.99287C13.7036 10.9029 14.3553 12.8579 15.6586 12.8579ZM28.4969 3.16787V12.1779L29.8569 12.6879V12.9429H26.6269V12.6879L27.9869 12.1779V1.55287L26.9669 1.29787V1.04287H29.0919C29.6813 1.04287 30.1459 1.16754 30.4859 1.41687C30.8373 1.65487 31.1376 2.01187 31.3869 2.48787L35.0929 9.57687L37.9319 2.48787C38.1246 1.9892 38.3853 1.62654 38.7139 1.39987C39.0426 1.16187 39.5469 1.04287 40.2269 1.04287H42.0119V1.29787L40.9919 1.55287V12.4329L42.0119 12.6879V12.9429H37.1669V12.6879L38.1869 12.4329V3.16787L34.1919 13.1129H33.6819L28.4969 3.16787ZM43.3779 12.1779C43.3779 11.5092 43.5083 10.9029 43.7689 10.3589C44.0409 9.80354 44.3696 9.32187 44.7549 8.91387C45.1403 8.50587 45.6446 8.0242 46.2679 7.46887C46.8459 6.95887 47.2993 6.53387 47.6279 6.19387C47.9566 5.84254 48.2343 5.45154 48.4609 5.02087C48.6876 4.57887 48.8009 4.10287 48.8009 3.59287C48.8009 2.84487 48.6196 2.2612 48.2569 1.84187C47.8943 1.42254 47.4239 1.21287 46.8459 1.21287C46.5173 1.21287 46.1829 1.2582 45.8429 1.34887L45.4859 1.46787V4.18787L45.2649 4.23887C45.0836 4.26154 44.9306 4.27287 44.8059 4.27287C44.4206 4.27287 44.1089 4.15954 43.8709 3.93287C43.6443 3.69487 43.5309 3.3832 43.5309 2.99787C43.5309 2.6352 43.6669 2.28387 43.9389 1.94387C44.2223 1.60387 44.6359 1.3262 45.1799 1.11087C45.7353 0.895537 46.4039 0.787871 47.1859 0.787871C48.7159 0.787871 49.8493 1.09387 50.5859 1.70587C51.3226 2.31787 51.6909 3.17354 51.6909 4.27287C51.6909 4.9642 51.5096 5.5592 51.1469 6.05787C50.7956 6.55654 50.3593 6.9702 49.8379 7.29887C49.3279 7.62754 48.6423 8.00154 47.7809 8.42087C47.0556 8.7722 46.4663 9.08387 46.0129 9.35587C45.5709 9.61654 45.1573 9.93387 44.7719 10.3079C44.3979 10.6819 44.1316 11.1069 43.9729 11.5829H50.2629C50.3423 10.9709 50.5349 10.4609 50.8409 10.0529C50.9656 9.8602 51.1129 9.6902 51.2829 9.54287H51.7929V12.9429H43.3779V12.1779Z" fill="white"/>
</svg>
