<svg width="69" height="14" viewBox="0 0 69 14" fill="none" xmlns="http://www.w3.org/2000/svg">
<path d="M4.14551 13.0112V12.7562L5.33551 12.4162V9.86623H0.490513L0.150513 9.35623L6.52551 0.94123H8.14051V9.10123H9.92551V9.86623H8.14051V12.4162L9.33051 12.7562V13.0112H4.14551ZM1.08551 9.10123H5.33551V3.49123L1.08551 9.10123ZM15.6909 13.2662C14.2629 13.2662 13.1806 12.9829 12.4439 12.4162C11.7186 11.8496 11.3559 11.1129 11.3559 10.2062C11.3559 9.5829 11.6279 8.98223 12.1719 8.40423C12.7159 7.8149 13.3789 7.39556 14.1609 7.14623C13.4129 6.7269 12.8406 6.2679 12.4439 5.76923C12.0586 5.25923 11.8659 4.64156 11.8659 3.91623C11.8659 3.00956 12.2286 2.2729 12.9539 1.70623C13.6906 1.13956 14.7729 0.85623 16.2009 0.85623C16.9149 0.85623 17.5382 0.986563 18.0709 1.24723C18.6149 1.5079 19.0342 1.8479 19.3289 2.26723C19.6236 2.68656 19.7709 3.1229 19.7709 3.57623C19.7709 4.1089 19.5386 4.62456 19.0739 5.12323C18.6206 5.6219 18.0879 5.95623 17.4759 6.12623C18.5072 6.57956 19.2892 7.1179 19.8219 7.74123C20.3546 8.36456 20.6209 9.12956 20.6209 10.0362C20.6209 10.6256 20.4396 11.1639 20.0769 11.6512C19.7142 12.1386 19.1646 12.5296 18.4279 12.8242C17.6912 13.1189 16.7789 13.2662 15.6909 13.2662ZM16.9659 5.78623C17.3966 5.59356 17.7422 5.3159 18.0029 4.95323C18.2749 4.59056 18.4109 4.13156 18.4109 3.57623C18.4109 3.16823 18.3089 2.78856 18.1049 2.43723C17.9122 2.0859 17.6572 1.80823 17.3399 1.60423C17.0339 1.3889 16.7109 1.28123 16.3709 1.28123C15.8836 1.28123 15.4756 1.4739 15.1469 1.85923C14.8296 2.23323 14.6709 2.7489 14.6709 3.40623C14.6709 4.3129 15.4359 5.10623 16.9659 5.78623ZM15.5209 12.8412C16.2462 12.8412 16.8072 12.6429 17.2039 12.2462C17.6119 11.8382 17.8159 11.2716 17.8159 10.5462C17.8159 10.0022 17.5439 9.45256 16.9999 8.89723C16.4559 8.3419 15.7362 7.87156 14.8409 7.48623C14.2062 7.7129 13.7076 8.0529 13.3449 8.50623C12.9822 8.94823 12.8009 9.5149 12.8009 10.2062C12.8009 10.6822 12.9199 11.1242 13.1579 11.5322C13.4072 11.9289 13.7359 12.2462 14.1439 12.4842C14.5632 12.7222 15.0222 12.8412 15.5209 12.8412ZM26.7495 12.7562L27.7695 12.5012V1.62123L26.7495 1.36623V1.11123H31.0845C33.1132 1.11123 34.6659 1.63256 35.7425 2.67523C36.8305 3.7179 37.3745 5.1799 37.3745 7.06123C37.3745 8.94256 36.8305 10.4046 35.7425 11.4472C34.6659 12.4899 33.1132 13.0112 31.0845 13.0112H26.7495V12.7562ZM31.0845 12.5862C32.1385 12.5862 32.9545 12.1612 33.5325 11.3112C34.1105 10.4499 34.3995 9.03323 34.3995 7.06123C34.3995 5.08923 34.1105 3.67823 33.5325 2.82823C32.9545 1.9669 32.1385 1.53623 31.0845 1.53623H30.5745V12.5862H31.0845ZM37.1972 12.7562L38.5572 12.2462L43.2322 0.94123H43.7422L48.5872 12.5012L49.4372 12.7562V13.0112H47.3972C46.8079 13.0112 46.3262 12.8809 45.9522 12.6202C45.5782 12.3482 45.3006 11.9969 45.1192 11.5662L44.2522 9.52623H40.1892L39.0672 12.2462L40.3422 12.7562V13.0112H37.1972V12.7562ZM40.3592 9.10123H44.0822L42.2122 4.63023L40.3592 9.10123ZM51.2116 12.7562L52.2316 12.5012V8.59123L48.7466 1.62123L47.8966 1.36623V1.11123H50.0216C50.6109 1.11123 51.0813 1.2359 51.4326 1.48523C51.7953 1.73456 52.0899 2.09156 52.3166 2.55623L54.8326 7.57123L57.4166 1.87623L56.1416 1.36623V1.11123H59.3716V1.36623L58.0116 1.87623L55.0366 8.42123V12.5012L56.0566 12.7562V13.0112H51.2116V12.7562ZM63.7026 13.2662C62.898 13.2662 62.1443 13.0849 61.4416 12.7222C61.1243 12.5636 60.858 12.3766 60.6426 12.1612C60.484 12.4219 60.2856 12.6542 60.0476 12.8582C59.8436 13.0056 59.7303 13.0849 59.7076 13.0962H59.2826V9.86623H59.9626C60.1326 10.4216 60.3706 10.9202 60.6766 11.3622C61.368 12.3482 62.2633 12.8412 63.3626 12.8412C64.0086 12.8412 64.5243 12.6486 64.9096 12.2632C65.295 11.8779 65.4876 11.3622 65.4876 10.7162C65.4876 10.3422 65.3743 10.0079 65.1476 9.71323C64.9323 9.41856 64.6603 9.1579 64.3316 8.93123C64.003 8.70456 63.544 8.42123 62.9546 8.08123C62.2066 7.6619 61.6003 7.28223 61.1356 6.94223C60.671 6.60223 60.2743 6.17723 59.9456 5.66723C59.617 5.1459 59.4526 4.5339 59.4526 3.83123C59.4526 3.2759 59.6056 2.77723 59.9116 2.33523C60.229 1.8819 60.6993 1.5249 61.3226 1.26423C61.946 0.99223 62.711 0.85623 63.6176 0.85623C64.275 0.85623 64.9323 1.04323 65.5896 1.41723C65.839 1.55323 66.0883 1.73456 66.3376 1.96123C66.5303 1.66656 66.7286 1.43423 66.9326 1.26423C67.1366 1.1169 67.25 1.03756 67.2726 1.02623H67.6976V4.25623H67.0176C66.8703 3.71223 66.6493 3.21923 66.3546 2.77723C66.0826 2.34656 65.7426 1.98956 65.3346 1.70623C64.938 1.4229 64.479 1.28123 63.9576 1.28123C63.5156 1.28123 63.136 1.4569 62.8186 1.80823C62.5013 2.15956 62.3426 2.60723 62.3426 3.15123C62.3426 3.57056 62.4616 3.95023 62.6996 4.29023C62.949 4.6189 63.2493 4.9079 63.6006 5.15723C63.9633 5.40656 64.4506 5.7069 65.0626 6.05823C65.7766 6.46623 66.3546 6.8289 66.7966 7.14623C67.2386 7.46356 67.6126 7.86023 67.9186 8.33623C68.2246 8.8009 68.3776 9.33923 68.3776 9.95123C68.3776 10.5632 68.202 11.1242 67.8506 11.6342C67.4993 12.1329 66.9723 12.5296 66.2696 12.8242C65.567 13.1189 64.7113 13.2662 63.7026 13.2662Z" fill="white"/>
</svg>
