<svg width="51" height="15" viewBox="0 0 51 15" fill="none" xmlns="http://www.w3.org/2000/svg">
<path d="M4.35229 14.1984C3.5703 14.1984 2.90163 14.0907 2.34629 13.8754C1.80229 13.66 1.38863 13.3824 1.10529 13.0424C0.833295 12.7024 0.697295 12.351 0.697295 11.9884C0.697295 11.603 0.810628 11.297 1.03729 11.0704C1.27529 10.8324 1.58696 10.7134 1.9723 10.7134C2.06296 10.7134 2.15363 10.7247 2.24429 10.7474C2.33496 10.7587 2.3973 10.7644 2.4313 10.7644L2.6523 10.7984V13.5184C2.66363 13.5184 2.78263 13.5637 3.00929 13.6544C3.30396 13.7337 3.6383 13.7734 4.01229 13.7734C4.6923 13.7734 5.23063 13.4957 5.6273 12.9404C6.02396 12.3737 6.2223 11.4897 6.2223 10.2884C6.2223 9.09836 6.0183 8.23703 5.61029 7.70436C5.2023 7.16036 4.61296 6.88836 3.8423 6.88836C3.54763 6.88836 3.26996 6.93936 3.00929 7.04136C2.74863 7.14336 2.47096 7.27936 2.1763 7.44936C1.9383 7.59669 1.70029 7.77803 1.4623 7.99336L1.12229 7.73836L1.80229 2.04336H6.8173C6.89663 1.43136 7.0893 0.921359 7.3953 0.513359C7.51996 0.320692 7.6673 0.150692 7.8373 0.00335848H8.3473V3.31836H2.1763L1.7173 7.22836C1.87596 7.11503 2.1083 6.99036 2.4143 6.85436C3.04896 6.59369 3.63829 6.46336 4.1823 6.46336C5.83696 6.46336 7.0723 6.80336 7.8883 7.48336C8.7043 8.15203 9.1123 9.08703 9.1123 10.2884C9.1123 11.5124 8.70996 12.47 7.9053 13.1614C7.10063 13.8527 5.9163 14.1984 4.35229 14.1984ZM15.2376 14.1984C13.8096 14.1984 12.6876 13.6884 11.8716 12.6684C11.0556 11.6484 10.6476 10.09 10.6476 7.99336C10.6476 5.95336 11.0896 4.41203 11.9736 3.36936C12.8689 2.31536 14.0986 1.78836 15.6626 1.78836C16.3313 1.78836 16.9149 1.90169 17.4136 2.12836C17.9236 2.34369 18.3089 2.62136 18.5696 2.96136C18.8416 3.30136 18.9776 3.64703 18.9776 3.99836C18.9776 4.38369 18.8586 4.69536 18.6206 4.93336C18.3939 5.16003 18.0879 5.27336 17.7026 5.27336C17.5439 5.27336 17.3853 5.26203 17.2266 5.23936L17.0226 5.18836V2.46836L16.6996 2.34936C16.4503 2.25869 16.2179 2.21336 16.0026 2.21336C15.4473 2.21336 14.9883 2.36069 14.6256 2.65536C14.2743 2.95003 14.0023 3.49403 13.8096 4.28736C13.6283 5.08069 13.5376 6.20269 13.5376 7.65336C13.6623 7.46069 13.8153 7.29069 13.9966 7.14336C14.4273 6.80336 14.9259 6.63336 15.4926 6.63336C16.3199 6.63336 17.0396 6.79203 17.6516 7.10936C18.2749 7.41536 18.7509 7.84603 19.0796 8.40136C19.4083 8.95669 19.5726 9.58569 19.5726 10.2884C19.5726 11.501 19.1929 12.4587 18.4336 13.1614C17.6856 13.8527 16.6203 14.1984 15.2376 14.1984ZM15.2376 13.8584C15.4643 13.8584 15.6853 13.745 15.9006 13.5184C16.1273 13.2917 16.3143 12.9234 16.4616 12.4134C16.6089 11.9034 16.6826 11.2517 16.6826 10.4584C16.6826 9.66503 16.6033 9.01336 16.4446 8.50336C16.2973 7.99336 16.1046 7.62503 15.8666 7.39836C15.6399 7.17169 15.4019 7.05836 15.1526 7.05836C14.6879 7.05836 14.3139 7.28503 14.0306 7.73836C13.7586 8.19169 13.6226 8.90003 13.6226 9.86336C13.6226 11.3027 13.7756 12.3284 14.0816 12.9404C14.3989 13.5524 14.7843 13.8584 15.2376 13.8584ZM27.4842 4.16836V13.1784L28.8442 13.6884V13.9434H25.6142V13.6884L26.9742 13.1784V2.55336L25.7842 2.29836V2.04336H28.0792C28.6686 2.04336 29.1332 2.16803 29.4732 2.41736C29.8246 2.65536 30.1249 3.01236 30.3742 3.48836L34.0802 10.5774L36.9192 3.48836C37.1119 2.98969 37.3726 2.62703 37.7012 2.40036C38.0299 2.16236 38.5342 2.04336 39.2142 2.04336H40.9992V2.29836L39.9792 2.55336V13.4334L40.9992 13.6884V13.9434H36.1542V13.6884L37.1742 13.4334V4.16836L33.1792 14.1134H32.6692L27.4842 4.16836ZM42.3652 13.1784C42.3652 12.5097 42.4956 11.9034 42.7562 11.3594C43.0282 10.804 43.3569 10.3224 43.7422 9.91436C44.1276 9.50636 44.6319 9.02469 45.2552 8.46936C45.8332 7.95936 46.2866 7.53436 46.6152 7.19436C46.9439 6.84303 47.2216 6.45203 47.4482 6.02136C47.6749 5.57936 47.7882 5.10336 47.7882 4.59336C47.7882 3.84536 47.6069 3.26169 47.2442 2.84236C46.8816 2.42303 46.4112 2.21336 45.8332 2.21336C45.5046 2.21336 45.1702 2.25869 44.8302 2.34936L44.4732 2.46836V5.18836L44.2522 5.23936C44.0709 5.26203 43.9179 5.27336 43.7932 5.27336C43.4079 5.27336 43.0962 5.16003 42.8582 4.93336C42.6316 4.69536 42.5182 4.38369 42.5182 3.99836C42.5182 3.63569 42.6542 3.28436 42.9262 2.94436C43.2096 2.60436 43.6232 2.32669 44.1672 2.11136C44.7226 1.89603 45.3912 1.78836 46.1732 1.78836C47.7032 1.78836 48.8366 2.09436 49.5732 2.70636C50.3099 3.31836 50.6782 4.17403 50.6782 5.27336C50.6782 5.96469 50.4969 6.55969 50.1342 7.05836C49.7829 7.55703 49.3466 7.97069 48.8252 8.29936C48.3152 8.62803 47.6296 9.00203 46.7682 9.42136C46.0429 9.77269 45.4536 10.0844 45.0002 10.3564C44.5582 10.617 44.1446 10.9344 43.7592 11.3084C43.3852 11.6824 43.1189 12.1074 42.9602 12.5834H49.2502C49.3296 11.9714 49.5222 11.4614 49.8282 11.0534C49.9529 10.8607 50.1002 10.6907 50.2702 10.5434H50.7802V13.9434H42.3652V13.1784Z" fill="white"/>
</svg>
