<svg width="69" height="14" viewBox="0 0 69 14" fill="none" xmlns="http://www.w3.org/2000/svg">
<path d="M5.16551 13.2672C3.73751 13.2672 2.65518 12.9839 1.91851 12.4172C1.19318 11.8505 0.830513 11.1139 0.830513 10.2072C0.830513 9.58387 1.10251 8.98321 1.64651 8.40521C2.19051 7.81587 2.85351 7.39654 3.63551 7.14721C2.88751 6.72787 2.31518 6.26887 1.91851 5.77021C1.53318 5.26021 1.34051 4.64254 1.34051 3.91721C1.34051 3.01054 1.70318 2.27387 2.42851 1.70721C3.16518 1.14054 4.24751 0.857206 5.67551 0.857206C6.38951 0.857206 7.01285 0.98754 7.54551 1.24821C8.08951 1.50887 8.50885 1.84887 8.80351 2.26821C9.09818 2.68754 9.24551 3.12387 9.24551 3.57721C9.24551 4.10987 9.01318 4.62554 8.54851 5.12421C8.09518 5.62287 7.56251 5.95721 6.95051 6.12721C7.98185 6.58054 8.76385 7.11887 9.29651 7.74221C9.82918 8.36554 10.0955 9.13054 10.0955 10.0372C10.0955 10.6265 9.91418 11.1649 9.55151 11.6522C9.18885 12.1395 8.63918 12.5305 7.90251 12.8252C7.16585 13.1199 6.25351 13.2672 5.16551 13.2672ZM6.44051 5.78721C6.87118 5.59454 7.21685 5.31687 7.47751 4.95421C7.74951 4.59154 7.88551 4.13254 7.88551 3.57721C7.88551 3.16921 7.78351 2.78954 7.57951 2.43821C7.38685 2.08687 7.13185 1.80921 6.81451 1.60521C6.50851 1.38987 6.18551 1.28221 5.84551 1.28221C5.35818 1.28221 4.95018 1.47487 4.62151 1.86021C4.30418 2.23421 4.14551 2.74987 4.14551 3.40721C4.14551 4.31387 4.91051 5.10721 6.44051 5.78721ZM4.99551 12.8422C5.72085 12.8422 6.28185 12.6439 6.67851 12.2472C7.08651 11.8392 7.29051 11.2725 7.29051 10.5472C7.29051 10.0032 7.01851 9.45354 6.47451 8.89821C5.93051 8.34287 5.21085 7.87254 4.31551 7.48721C3.68085 7.71387 3.18218 8.05387 2.81951 8.50721C2.45685 8.94921 2.27551 9.51587 2.27551 10.2072C2.27551 10.6832 2.39451 11.1252 2.63251 11.5332C2.88185 11.9299 3.21051 12.2472 3.61851 12.4852C4.03785 12.7232 4.49685 12.8422 4.99551 12.8422ZM15.7175 13.2672C14.2895 13.2672 13.1675 12.7572 12.3515 11.7372C11.5355 10.7172 11.1275 9.15887 11.1275 7.06221C11.1275 5.02221 11.5695 3.48087 12.4535 2.43821C13.3488 1.38421 14.5785 0.857206 16.1425 0.857206C16.8111 0.857206 17.3948 0.97054 17.8935 1.19721C18.4035 1.41254 18.7888 1.69021 19.0495 2.03021C19.3215 2.37021 19.4575 2.71587 19.4575 3.06721C19.4575 3.45254 19.3385 3.76421 19.1005 4.00221C18.8738 4.22887 18.5678 4.34221 18.1825 4.34221C18.0238 4.34221 17.8651 4.33087 17.7065 4.30821L17.5025 4.25721V1.53721L17.1795 1.41821C16.9301 1.32754 16.6978 1.28221 16.4825 1.28221C15.9271 1.28221 15.4681 1.42954 15.1055 1.72421C14.7541 2.01887 14.4821 2.56287 14.2895 3.35621C14.1081 4.14954 14.0175 5.27154 14.0175 6.72221C14.1421 6.52954 14.2951 6.35954 14.4765 6.21221C14.9071 5.87221 15.4058 5.70221 15.9725 5.70221C16.7998 5.70221 17.5195 5.86087 18.1315 6.17821C18.7548 6.48421 19.2308 6.91487 19.5595 7.47021C19.8881 8.02554 20.0525 8.65454 20.0525 9.35721C20.0525 10.5699 19.6728 11.5275 18.9135 12.2302C18.1655 12.9215 17.1001 13.2672 15.7175 13.2672ZM15.7175 12.9272C15.9441 12.9272 16.1651 12.8139 16.3805 12.5872C16.6071 12.3605 16.7941 11.9922 16.9415 11.4822C17.0888 10.9722 17.1625 10.3205 17.1625 9.52721C17.1625 8.73387 17.0831 8.08221 16.9245 7.57221C16.7771 7.06221 16.5845 6.69387 16.3465 6.46721C16.1198 6.24054 15.8818 6.12721 15.6325 6.12721C15.1678 6.12721 14.7938 6.35387 14.5105 6.80721C14.2385 7.26054 14.1025 7.96887 14.1025 8.93221C14.1025 10.3715 14.2555 11.3972 14.5615 12.0092C14.8788 12.6212 15.2641 12.9272 15.7175 12.9272ZM26.4341 12.7572L27.4541 12.5022V1.62221L26.4341 1.36721V1.11221H30.7691C32.7978 1.11221 34.3504 1.63354 35.4271 2.67621C36.5151 3.71887 37.0591 5.18087 37.0591 7.06221C37.0591 8.94354 36.5151 10.4055 35.4271 11.4482C34.3504 12.4909 32.7978 13.0122 30.7691 13.0122H26.4341V12.7572ZM30.7691 12.5872C31.8231 12.5872 32.6391 12.1622 33.2171 11.3122C33.7951 10.4509 34.0841 9.03421 34.0841 7.06221C34.0841 5.09021 33.7951 3.67921 33.2171 2.82921C32.6391 1.96787 31.8231 1.53721 30.7691 1.53721H30.2591V12.5872H30.7691ZM36.8818 12.7572L38.2418 12.2472L42.9168 0.942206H43.4268L48.2718 12.5022L49.1218 12.7572V13.0122H47.0818C46.4925 13.0122 46.0108 12.8819 45.6368 12.6212C45.2628 12.3492 44.9851 11.9979 44.8038 11.5672L43.9368 9.52721H39.8738L38.7518 12.2472L40.0268 12.7572V13.0122H36.8818V12.7572ZM40.0438 9.10221H43.7668L41.8968 4.63121L40.0438 9.10221ZM50.8962 12.7572L51.9162 12.5022V8.59221L48.4312 1.62221L47.5812 1.36721V1.11221H49.7062C50.2955 1.11221 50.7658 1.23687 51.1172 1.48621C51.4798 1.73554 51.7745 2.09254 52.0012 2.55721L54.5172 7.57221L57.1012 1.87721L55.8262 1.36721V1.11221H59.0562V1.36721L57.6962 1.87721L54.7212 8.42221V12.5022L55.7412 12.7572V13.0122H50.8962V12.7572ZM63.3872 13.2672C62.5825 13.2672 61.8289 13.0859 61.1262 12.7232C60.8089 12.5645 60.5425 12.3775 60.3272 12.1622C60.1685 12.4229 59.9702 12.6552 59.7322 12.8592C59.5282 13.0065 59.4149 13.0859 59.3922 13.0972H58.9672V9.86721H59.6472C59.8172 10.4225 60.0552 10.9212 60.3612 11.3632C61.0525 12.3492 61.9479 12.8422 63.0472 12.8422C63.6932 12.8422 64.2089 12.6495 64.5942 12.2642C64.9795 11.8789 65.1722 11.3632 65.1722 10.7172C65.1722 10.3432 65.0589 10.0089 64.8322 9.71421C64.6169 9.41954 64.3449 9.15887 64.0162 8.93221C63.6875 8.70554 63.2285 8.42221 62.6392 8.08221C61.8912 7.66287 61.2849 7.28321 60.8202 6.94321C60.3555 6.60321 59.9589 6.17821 59.6302 5.66821C59.3015 5.14687 59.1372 4.53487 59.1372 3.83221C59.1372 3.27687 59.2902 2.77821 59.5962 2.33621C59.9135 1.88287 60.3839 1.52587 61.0072 1.26521C61.6305 0.993206 62.3955 0.857206 63.3022 0.857206C63.9595 0.857206 64.6169 1.04421 65.2742 1.41821C65.5235 1.55421 65.7729 1.73554 66.0222 1.96221C66.2149 1.66754 66.4132 1.43521 66.6172 1.26521C66.8212 1.11787 66.9345 1.03854 66.9572 1.02721H67.3822V4.25721H66.7022C66.5549 3.71321 66.3339 3.22021 66.0392 2.77821C65.7672 2.34754 65.4272 1.99054 65.0192 1.70721C64.6225 1.42387 64.1635 1.28221 63.6422 1.28221C63.2002 1.28221 62.8205 1.45787 62.5032 1.80921C62.1859 2.16054 62.0272 2.60821 62.0272 3.15221C62.0272 3.57154 62.1462 3.95121 62.3842 4.29121C62.6335 4.61987 62.9339 4.90887 63.2852 5.15821C63.6479 5.40754 64.1352 5.70787 64.7472 6.05921C65.4612 6.46721 66.0392 6.82987 66.4812 7.14721C66.9232 7.46454 67.2972 7.86121 67.6032 8.33721C67.9092 8.80187 68.0622 9.34021 68.0622 9.95221C68.0622 10.5642 67.8865 11.1252 67.5352 11.6352C67.1839 12.1339 66.6569 12.5305 65.9542 12.8252C65.2515 13.1199 64.3959 13.2672 63.3872 13.2672Z" fill="white"/>
</svg>
