<svg width="53" height="14" viewBox="0 0 53 14" fill="none" xmlns="http://www.w3.org/2000/svg">
<path d="M4.77723 13.1984C4.10857 13.1984 3.51923 13.0907 3.00923 12.8754C2.51057 12.6487 2.12523 12.3654 1.85323 12.0254C1.59257 11.6854 1.46223 11.3397 1.46223 10.9884C1.46223 10.603 1.57557 10.297 1.80223 10.0704C2.04023 9.83236 2.3519 9.71336 2.73723 9.71336C2.8279 9.71336 2.91857 9.72469 3.00923 9.74736C3.0999 9.75869 3.16223 9.76436 3.19623 9.76436L3.41723 9.79836V12.5184L3.74023 12.6544C3.94423 12.7337 4.17657 12.7734 4.43723 12.7734C4.99257 12.7734 5.4459 12.626 5.79723 12.3314C6.14857 12.0367 6.42057 11.4927 6.61323 10.6994C6.8059 9.90603 6.90223 8.78403 6.90223 7.33336C6.80023 7.50336 6.64157 7.67336 6.42623 7.84336C5.99557 8.18336 5.50257 8.35336 4.94723 8.35336C4.1199 8.35336 3.39457 8.20036 2.77123 7.89436C2.15923 7.57703 1.6889 7.14069 1.36023 6.58536C1.03157 6.03003 0.867234 5.40103 0.867234 4.69836C0.867234 3.48569 1.24123 2.53369 1.98923 1.84236C2.74857 1.13969 3.81957 0.788359 5.20223 0.788359C6.63023 0.788359 7.75223 1.29836 8.56823 2.31836C9.38423 3.33836 9.79223 4.89669 9.79223 6.99336C9.79223 9.03336 9.34457 10.5804 8.44923 11.6344C7.56523 12.677 6.34123 13.1984 4.77723 13.1984ZM5.28723 7.92836C5.7519 7.92836 6.12023 7.70169 6.39223 7.24836C6.67557 6.79503 6.81723 6.08669 6.81723 5.12336C6.81723 3.68403 6.65857 2.65836 6.34123 2.04636C6.03523 1.43436 5.65557 1.12836 5.20223 1.12836C4.97557 1.12836 4.7489 1.24169 4.52223 1.46836C4.3069 1.69503 4.12557 2.06336 3.97823 2.57336C3.8309 3.08336 3.75723 3.73503 3.75723 4.52836C3.75723 5.32169 3.8309 5.97336 3.97823 6.48336C4.1369 6.99336 4.32957 7.36169 4.55623 7.58836C4.79423 7.81503 5.0379 7.92836 5.28723 7.92836ZM16.3392 13.1984C15.4212 13.1984 14.5882 12.9547 13.8402 12.4674C13.0922 11.98 12.4972 11.2717 12.0552 10.3424C11.6246 9.40169 11.4092 8.28536 11.4092 6.99336C11.4092 5.70136 11.6246 4.59069 12.0552 3.66136C12.4972 2.72069 13.0922 2.00669 13.8402 1.51936C14.5882 1.03203 15.4212 0.788359 16.3392 0.788359C17.2572 0.788359 18.0902 1.03203 18.8382 1.51936C19.5862 2.00669 20.1756 2.72069 20.6062 3.66136C21.0482 4.59069 21.2692 5.70136 21.2692 6.99336C21.2692 8.28536 21.0482 9.40169 20.6062 10.3424C20.1756 11.2717 19.5862 11.98 18.8382 12.4674C18.0902 12.9547 17.2572 13.1984 16.3392 13.1984ZM16.3392 12.8584C17.6426 12.8584 18.2942 10.9034 18.2942 6.99336C18.2942 3.08336 17.6426 1.12836 16.3392 1.12836C15.0359 1.12836 14.3842 3.08336 14.3842 6.99336C14.3842 10.9034 15.0359 12.8584 16.3392 12.8584ZM29.1775 3.16836V12.1784L30.5375 12.6884V12.9434H27.3075V12.6884L28.6675 12.1784V1.55336L27.4775 1.29836V1.04336H29.7725C30.3619 1.04336 30.8265 1.16803 31.1665 1.41736C31.5179 1.65536 31.8182 2.01236 32.0675 2.48836L35.7735 9.57736L38.6125 2.48836C38.8052 1.98969 39.0659 1.62703 39.3945 1.40036C39.7232 1.16236 40.2275 1.04336 40.9075 1.04336H42.6925V1.29836L41.6725 1.55336V12.4334L42.6925 12.6884V12.9434H37.8475V12.6884L38.8675 12.4334V3.16836L34.8725 13.1134H34.3625L29.1775 3.16836ZM44.0585 12.1784C44.0585 11.5097 44.1889 10.9034 44.4495 10.3594C44.7215 9.80403 45.0502 9.32236 45.4355 8.91436C45.8209 8.50636 46.3252 8.02469 46.9485 7.46936C47.5265 6.95936 47.9799 6.53436 48.3085 6.19436C48.6372 5.84303 48.9149 5.45203 49.1415 5.02136C49.3682 4.57936 49.4815 4.10336 49.4815 3.59336C49.4815 2.84536 49.3002 2.26169 48.9375 1.84236C48.5749 1.42303 48.1045 1.21336 47.5265 1.21336C47.1979 1.21336 46.8635 1.25869 46.5235 1.34936L46.1665 1.46836V4.18836L45.9455 4.23936C45.7642 4.26203 45.6112 4.27336 45.4865 4.27336C45.1012 4.27336 44.7895 4.16003 44.5515 3.93336C44.3249 3.69536 44.2115 3.38369 44.2115 2.99836C44.2115 2.63569 44.3475 2.28436 44.6195 1.94436C44.9029 1.60436 45.3165 1.32669 45.8605 1.11136C46.4159 0.896025 47.0845 0.788359 47.8665 0.788359C49.3965 0.788359 50.5299 1.09436 51.2665 1.70636C52.0032 2.31836 52.3715 3.17403 52.3715 4.27336C52.3715 4.96469 52.1902 5.55969 51.8275 6.05836C51.4762 6.55703 51.0399 6.97069 50.5185 7.29936C50.0085 7.62803 49.3229 8.00203 48.4615 8.42136C47.7362 8.77269 47.1469 9.08436 46.6935 9.35636C46.2515 9.61703 45.8379 9.93436 45.4525 10.3084C45.0785 10.6824 44.8122 11.1074 44.6535 11.5834H50.9435C51.0229 10.9714 51.2155 10.4614 51.5215 10.0534C51.6462 9.86069 51.7935 9.69069 51.9635 9.54336H52.4735V12.9434H44.0585V12.1784Z" fill="white"/>
</svg>
